<svg width="20" height="20" viewBox="0 0 20 20" fill="none" xmlns="http://www.w3.org/2000/svg">
<path fill-rule="evenodd" clip-rule="evenodd" d="M8.23223 8.23223C8.70107 7.76339 9.33696 7.5 10 7.5C10.663 7.5 11.2989 7.76339 11.7678 8.23223C12.2366 8.70107 12.5 9.33696 12.5 10C12.5 10.663 12.2366 11.2989 11.7678 11.7678C11.2989 12.2366 10.663 12.5 10 12.5C9.33696 12.5 8.70107 12.2366 8.23223 11.7678C7.76339 11.2989 7.5 10.663 7.5 10C7.5 9.33696 7.76339 8.70107 8.23223 8.23223ZM10 9.16667C9.77899 9.16667 9.56703 9.25446 9.41074 9.41074C9.25446 9.56703 9.16667 9.77899 9.16667 10C9.16667 10.221 9.25446 10.433 9.41074 10.5893C9.56703 10.7455 9.77899 10.8333 10 10.8333C10.221 10.8333 10.433 10.7455 10.5893 10.5893C10.7455 10.433 10.8333 10.221 10.8333 10C10.8333 9.77899 10.7455 9.56703 10.5893 9.41074C10.433 9.25446 10.221 9.16667 10 9.16667Z" fill="black"/>
<path fill-rule="evenodd" clip-rule="evenodd" d="M2.63387 9.99992C4.71548 13.442 7.17797 14.9999 10.0007 14.9999C12.8233 14.9999 15.2858 13.442 17.3674 9.99992C15.2858 6.55782 12.8233 4.99992 10.0007 4.99992C7.17797 4.99992 4.71548 6.55782 2.63387 9.99992ZM0.943791 9.58645C3.25665 5.53916 6.26731 3.33325 10.0007 3.33325C13.734 3.33325 16.7446 5.53916 19.0575 9.58645C19.2039 9.84266 19.2039 10.1572 19.0575 10.4134C16.7446 14.4607 13.734 16.6666 10.0007 16.6666C6.26731 16.6666 3.25665 14.4607 0.943791 10.4134C0.797382 10.1572 0.797382 9.84266 0.943791 9.58645Z" fill="black"/>
</svg>
