<svg width="20" height="20" viewBox="0 0 20 20" fill="none" xmlns="http://www.w3.org/2000/svg">
<path fill-rule="evenodd" clip-rule="evenodd" d="M1.91205 1.91083C2.23748 1.58539 2.76512 1.58539 3.09056 1.91083L18.0906 16.9108C18.416 17.2363 18.416 17.7639 18.0906 18.0893C17.7651 18.4148 17.2375 18.4148 16.912 18.0893L11.0796 12.2568C10.7453 12.4169 10.3764 12.5022 9.99875 12.5021C9.33562 12.5019 8.69974 12.2382 8.23101 11.7691C7.76227 11.3001 7.49906 10.664 7.4993 10.0009C7.49943 9.6238 7.58473 9.25555 7.74454 8.92183L1.91205 3.08934C1.58661 2.7639 1.58661 2.23626 1.91205 1.91083ZM9.36467 10.542C9.37904 10.5589 9.39414 10.5752 9.40993 10.591C9.42587 10.607 9.44238 10.6222 9.45942 10.6367L9.36467 10.542Z" fill="black"/>
<path fill-rule="evenodd" clip-rule="evenodd" d="M9.9977 4.99996C9.33304 4.99761 8.67138 5.08919 8.03235 5.272C7.58986 5.39858 7.12854 5.14248 7.00196 4.7C6.87537 4.25751 7.13147 3.79619 7.57396 3.66961C8.36348 3.44375 9.18094 3.33053 10.0021 3.3333C13.7348 3.33388 16.745 5.53975 19.0575 9.5865C19.2039 9.84274 19.2039 10.1573 19.0575 10.4135C18.3838 11.592 17.6529 12.6145 16.8601 13.4723C16.5477 13.8102 16.0205 13.831 15.6825 13.5186C15.3445 13.2062 15.3238 12.679 15.6362 12.341C16.239 11.6888 16.8167 10.91 17.3674 9.99989C15.2858 6.55784 12.8233 4.99997 10.0007 4.99997L9.9977 4.99996ZM6.21697 5.08134C6.47532 5.46223 6.37599 5.98043 5.99511 6.23878C4.79157 7.05515 3.6659 8.29473 2.63393 10.0001C4.71552 13.4421 7.178 15 10.0007 15C11.4501 15 12.775 14.592 13.9989 13.7666C14.3804 13.5092 14.8984 13.6099 15.1557 13.9915C15.413 14.3731 15.3123 14.891 14.9308 15.1484C13.4363 16.1563 11.7878 16.6666 10.0007 16.6666C6.26731 16.6666 3.25665 14.4607 0.943791 10.4134C0.797366 10.1572 0.797383 9.84264 0.943838 9.58642C2.128 7.51479 3.49327 5.92188 5.05953 4.85949C5.44041 4.60113 5.95861 4.70046 6.21697 5.08134Z" fill="black"/>
</svg>
