<svg width="32" height="32" viewBox="0 0 32 32" fill="none" xmlns="http://www.w3.org/2000/svg">
<path d="M12.0003 29.3333H20.0003C26.667 29.3333 29.3337 26.6667 29.3337 20V12C29.3337 5.33334 26.667 2.66667 20.0003 2.66667H12.0003C5.33366 2.66667 2.66699 5.33334 2.66699 12V20" stroke="#76838B" stroke-width="1.5" stroke-linecap="round" stroke-linejoin="round"/>
<path d="M11.9997 13.3333C13.4724 13.3333 14.6663 12.1394 14.6663 10.6667C14.6663 9.19391 13.4724 8 11.9997 8C10.5269 8 9.33301 9.19391 9.33301 10.6667C9.33301 12.1394 10.5269 13.3333 11.9997 13.3333Z" stroke="#76838B" stroke-width="1.5" stroke-linecap="round" stroke-linejoin="round"/>
<path d="M10.1338 20.8533C11.1871 20.1467 12.7071 20.2267 13.6538 21.04L14.0938 21.4267C15.1338 22.32 16.8138 22.32 17.8538 21.4267L23.4005 16.6667C24.4405 15.7733 26.1205 15.7733 27.1605 16.6667L29.3338 18.5333" stroke="#76838B" stroke-width="1.5" stroke-linecap="round" stroke-linejoin="round"/>
</svg>
