<svg width="24" height="24" viewBox="0 0 24 24" fill="none" xmlns="http://www.w3.org/2000/svg">
<path d="M9 10C10.1046 10 11 9.10457 11 8C11 6.89543 10.1046 6 9 6C7.89543 6 7 6.89543 7 8C7 9.10457 7.89543 10 9 10Z" stroke="#1C4081" stroke-width="2" stroke-linecap="round" stroke-linejoin="round"/>
<path d="M13 2H9C4 2 2 4 2 9V12M9 22H15C20 22 22 20 22 15V10" stroke="#1C4081" stroke-width="2" stroke-linecap="round" stroke-linejoin="round"/>
<path d="M15.75 5H21.25" stroke="#1C4081" stroke-width="2" stroke-linecap="round"/>
<path d="M18.5 7.75V2.25" stroke="#1C4081" stroke-width="2" stroke-linecap="round"/>
<path d="M7.59961 15.64C8.38961 15.11 9.52961 15.17 10.2396 15.78L10.5696 16.07C11.3496 16.74 12.6096 16.74 13.3896 16.07L17.5496 12.5C18.3296 11.83 19.5896 11.83 20.3696 12.5L21.9996 13.9" stroke="#1C4081" stroke-width="2" stroke-linecap="round" stroke-linejoin="round"/>
</svg>
