<svg width="24" height="24" viewBox="0 0 24 24" fill="none" xmlns="http://www.w3.org/2000/svg">
<path d="M11.0099 19.58C11.5599 19.26 12.4499 19.26 12.9899 19.58L15.9799 21.35C18.1299 22.62 19.4199 21.68 18.8599 19.25L18.1499 16.18C18.0199 15.6 18.2499 14.79 18.6699 14.37L21.1499 11.89C22.6199 10.43 22.1399 8.95001 20.0999 8.61001L16.9099 8.08001C16.3699 7.99001 15.7299 7.52002 15.4899 7.03001L13.7299 3.51001C12.7799 1.60001 11.2199 1.60001 10.2599 3.51001L8.49991 7.03001C8.25991 7.52002 7.61991 7.99001 7.08991 8.08001L3.89991 8.61001C1.85991 8.95001 1.38991 10.43 2.84991 11.89L5.32991 14.37" stroke="#1C4081" stroke-width="2" stroke-linecap="round" stroke-linejoin="round"/>
</svg>
