<svg width="32" height="32" viewBox="0 0 32 32" fill="none" xmlns="http://www.w3.org/2000/svg">
<path d="M4.22656 9.92001L15.9999 16.7333L27.6932 9.95997" stroke="#76838B" stroke-width="1.5" stroke-linecap="round" stroke-linejoin="round"/>
<path d="M16 28.8133V16.72" stroke="#76838B" stroke-width="1.5" stroke-linecap="round" stroke-linejoin="round"/>
<path d="M28.8132 17.1067V12.2267C28.8132 10.3867 27.4932 8.1467 25.8798 7.25337L18.7598 3.30667C17.2398 2.45334 14.7598 2.45334 13.2398 3.30667L6.11983 7.25337C4.5065 8.1467 3.18652 10.3867 3.18652 12.2267V16M18.7598 28.6934C17.9998 29.1201 16.9998 29.3334 15.9998 29.3334C14.9998 29.3334 13.9998 29.1201 13.2398 28.6934L9.67983 26.72" stroke="#76838B" stroke-width="1.5" stroke-linecap="round" stroke-linejoin="round"/>
<path d="M25.5997 28.5334C27.9561 28.5334 29.8663 26.6231 29.8663 24.2667C29.8663 21.9103 27.9561 20 25.5997 20C23.2433 20 21.333 21.9103 21.333 24.2667C21.333 26.6231 23.2433 28.5334 25.5997 28.5334Z" stroke="#76838B" stroke-width="1.5" stroke-linecap="round" stroke-linejoin="round"/>
<path d="M30.6663 29.3333L29.333 28" stroke="#76838B" stroke-width="1.5" stroke-linecap="round" stroke-linejoin="round"/>
</svg>
