<svg width="60" height="60" viewBox="0 0 60 60" fill="none" xmlns="http://www.w3.org/2000/svg">
<path d="M29.6488 39.324C28.7928 39.324 27.9848 39.164 27.2248 38.844C26.4728 38.516 25.8208 38.052 25.2688 37.452C24.7248 36.844 24.3328 36.136 24.0928 35.328L26.5168 34.656C26.7408 35.384 27.1328 35.948 27.6928 36.348C28.2528 36.748 28.8928 36.948 29.6128 36.948C30.2368 36.948 30.7928 36.808 31.2808 36.528C31.7768 36.24 32.1608 35.844 32.4328 35.34C32.7128 34.836 32.8528 34.268 32.8528 33.636C32.8528 33.004 32.7168 32.436 32.4448 31.932C32.1728 31.428 31.7928 31.036 31.3048 30.756C30.8168 30.468 30.2568 30.324 29.6248 30.324C29.0728 30.324 28.5288 30.468 27.9928 30.756L26.8168 28.776L32.0968 24.108H24.7768V21.72H35.1688V24.108L30.8968 28.212C31.8088 28.332 32.6048 28.644 33.2848 29.148C33.9728 29.644 34.5008 30.284 34.8688 31.068C35.2368 31.844 35.4208 32.7 35.4208 33.636C35.4208 34.716 35.1648 35.688 34.6528 36.552C34.1408 37.416 33.4448 38.096 32.5648 38.592C31.6848 39.08 30.7128 39.324 29.6488 39.324Z" fill="#3C4A51"/>
<path d="M23.0667 56H46C51.5228 56 56 51.5228 56 46V14C56 8.47715 51.5228 4 46 4H14C8.47715 4 4 8.47715 4 14V36.9333" stroke="url(#paint0_linear_313_10028)" stroke-width="8" stroke-linecap="round"/>
<defs>
<linearGradient id="paint0_linear_313_10028" x1="-14.5" y1="-10.5" x2="65.5" y2="67" gradientUnits="userSpaceOnUse">
<stop stop-color="#FF5B5B"/>
<stop offset="1" stop-color="#469AFF"/>
</linearGradient>
</defs>
</svg>
