<svg width="60" height="60" viewBox="0 0 60 60" fill="none" xmlns="http://www.w3.org/2000/svg">
<path d="M24.169 36.756L31.693 30.012C32.269 29.5 32.673 29.004 32.905 28.524C33.145 28.044 33.265 27.54 33.265 27.012C33.265 26.404 33.129 25.852 32.857 25.356C32.585 24.852 32.205 24.46 31.717 24.18C31.229 23.892 30.681 23.748 30.073 23.748C29.449 23.748 28.885 23.896 28.381 24.192C27.877 24.488 27.481 24.888 27.193 25.392C26.913 25.888 26.777 26.424 26.785 27H24.217C24.217 25.896 24.469 24.92 24.973 24.072C25.477 23.216 26.177 22.552 27.073 22.08C27.969 21.6 28.985 21.36 30.121 21.36C31.193 21.36 32.165 21.608 33.037 22.104C33.909 22.592 34.593 23.272 35.089 24.144C35.593 25.008 35.845 25.976 35.845 27.048C35.845 27.816 35.745 28.476 35.545 29.028C35.345 29.572 35.049 30.072 34.657 30.528C34.273 30.984 33.733 31.52 33.037 32.136L28.033 36.6H35.845V38.988H24.157L24.169 36.756Z" fill="#3C4A51"/>
<path d="M23.0667 56H46C51.5228 56 56 51.5228 56 46V14C56 8.47715 51.5228 4 46 4H14C8.47715 4 4 8.47715 4 14V36.9333" stroke="url(#paint0_linear_313_8416)" stroke-width="8" stroke-linecap="round"/>
<defs>
<linearGradient id="paint0_linear_313_8416" x1="-14.5" y1="-10.5" x2="65.5" y2="67" gradientUnits="userSpaceOnUse">
<stop stop-color="#FF5B5B"/>
<stop offset="1" stop-color="#469AFF"/>
</linearGradient>
</defs>
</svg>
