<svg width="40" height="40" viewBox="0 0 40 40" fill="none" xmlns="http://www.w3.org/2000/svg">
<path d="M13.3333 3.33333V8.33333M26.6667 3.33333V8.33333M15 36.6833H25C33.3333 36.6833 35 33.25 35 26.3833V16.0833C35 8.24999 32.2167 6.13333 26.6667 5.83333H13.3333C7.78333 6.15 5 8.24999 5 16.0833V26.3833M34.5833 29.3333H14.5002" stroke="url(#paint0_linear_313_11926)" stroke-width="1.5" stroke-miterlimit="10" stroke-linecap="round" stroke-linejoin="round"/>
<path d="M20.0002 13.75C17.9502 13.75 16.2168 14.8667 16.2168 17.0333C16.2168 18.0667 16.7002 18.85 17.4335 19.35C16.4168 19.95 15.8335 20.9167 15.8335 22.05C15.8335 24.1167 17.4168 25.4 20.0002 25.4C22.5668 25.4 24.1668 24.1167 24.1668 22.05C24.1668 20.9167 23.5835 19.9333 22.5502 19.35C23.3002 18.8333 23.7668 18.0667 23.7668 17.0333C23.7668 14.8667 22.0502 13.75 20.0002 13.75ZM20.0002 18.4833C19.1335 18.4833 18.5002 17.9667 18.5002 17.15C18.5002 16.3167 19.1335 15.8333 20.0002 15.8333C20.8668 15.8333 21.5002 16.3167 21.5002 17.15C21.5002 17.9667 20.8668 18.4833 20.0002 18.4833ZM20.0002 23.3333C18.9002 23.3333 18.1002 22.7833 18.1002 21.7833C18.1002 20.7833 18.9002 20.25 20.0002 20.25C21.1002 20.25 21.9002 20.8 21.9002 21.7833C21.9002 22.7833 21.1002 23.3333 20.0002 23.3333Z" fill="url(#paint1_linear_313_11926)"/>
<defs>
<linearGradient id="paint0_linear_313_11926" x1="10.5394" y1="4.30951" x2="27.2642" y2="19.646" gradientUnits="userSpaceOnUse">
<stop stop-color="#49B0EA"/>
<stop offset="1" stop-color="#FFC226"/>
</linearGradient>
<linearGradient id="paint1_linear_313_11926" x1="17.3722" y1="14.091" x2="22.9558" y2="18.1624" gradientUnits="userSpaceOnUse">
<stop stop-color="#49B0EA"/>
<stop offset="1" stop-color="#FFC226"/>
</linearGradient>
</defs>
</svg>
