<svg width="40" height="40" viewBox="0 0 40 40" fill="none" xmlns="http://www.w3.org/2000/svg">
<path d="M5.2834 12.4L20 20.9166L34.6167 12.4499M20 36.0166V20.9M3.9834 20.0084V15.3C3.9834 13 5.63337 10.2 7.65003 9.08338L16.55 4.13333C18.45 3.06666 21.55 3.06666 23.4667 4.13333L32.3667 9.08338C34.3834 10.2 36.0334 13 36.0334 15.3V24.7167C36.0334 27.0167 34.3834 29.8167 32.3667 30.9334L23.4667 35.8834C21.5667 36.9334 18.45 36.9334 16.55 35.8834L12.1 33.4084M28.3334 22.0666V15.9667L12.5167 6.83329" stroke="url(#paint0_linear_314_1263)" stroke-width="1.5" stroke-linecap="round" stroke-linejoin="round"/>
<defs>
<linearGradient id="paint0_linear_314_1263" x1="9.90134" y1="4.30915" x2="26.6793" y2="20.7518" gradientUnits="userSpaceOnUse">
<stop stop-color="#49B0EA"/>
<stop offset="1" stop-color="#FFC226"/>
</linearGradient>
</defs>
</svg>
