<svg width="41" height="40" viewBox="0 0 41 40" fill="none" xmlns="http://www.w3.org/2000/svg">
<path d="M21 25V31.6667C21 34.4167 18.75 36.6667 16 36.6667H9.33333M21 25V18.05C21 17.2833 20.5666 16.2333 20.0166 15.6833L16.4833 12.15C16.1833 11.85 16 11.4167 16 10.9833V8.33334V8.18997C16.9721 7.84387 17.6667 6.91117 17.6667 5.83334C17.6667 4.46668 16.55 3.33334 15.1667 3.33334H6.83333C5.45 3.33334 4.33333 4.46668 4.33333 5.83334C4.33333 6.91117 5.02787 7.84387 6 8.18997V8.33334V10.9833C6 11.4167 5.8167 11.85 5.5167 12.15L1.98338 15.6833C1.43338 16.2333 1 17.2833 1 18.05V23.3M21 25V26.6667M1 28.3334V23.3M1 23.3V24.9667" stroke="url(#paint0_linear_313_11834)" stroke-width="1.5" stroke-linecap="round" stroke-linejoin="round"/>
<defs>
<linearGradient id="paint0_linear_313_11834" x1="4.69295" y1="4.30904" x2="19.6304" y2="13.4452" gradientUnits="userSpaceOnUse">
<stop stop-color="#49B0EA"/>
<stop offset="1" stop-color="#FFC226"/>
</linearGradient>
</defs>
</svg>
