<svg width="230" height="65" viewBox="0 0 230 65" fill="none" xmlns="http://www.w3.org/2000/svg">
<path d="M29.2958 44.253C27.5138 44.261 25.7553 43.8292 24.1646 42.9934C22.574 42.1575 21.1964 40.9412 20.145 39.4444L12.8169 43.823C13.0958 44.1574 13.4259 44.4414 13.794 44.6635L26.8343 52.4825C27.5964 52.8875 28.44 53.0986 29.2958 53.0986C30.1516 53.0986 30.9951 52.8875 31.7572 52.4825L44.7975 44.6635C45.1657 44.4414 45.4958 44.1574 45.7746 43.823L38.4653 39.3662C37.4201 40.8802 36.0432 42.1131 34.4485 42.963C32.8539 43.8129 31.0875 44.2551 29.2958 44.253Z" fill="#1C4081"/>
<path d="M17.8222 32.4533C17.8288 29.6734 18.9093 26.9933 20.857 24.9253C22.8047 22.8573 25.4832 21.5464 28.3803 21.2432V12.8169C27.9407 12.904 27.5179 13.0553 27.1266 13.2653L13.5323 20.7387C12.7935 21.2102 12.1791 21.8384 11.7373 22.5743C11.2955 23.3101 11.0384 24.1334 10.9859 24.9799V39.9267C10.9919 40.3579 11.0644 40.7861 11.2013 41.1972L18.8408 36.9934C18.1728 35.5644 17.8258 34.0179 17.8222 32.4533Z" fill="#1C4081"/>
<path d="M45.1932 20.7335L32.3144 13.265C31.9438 13.0551 31.5432 12.904 31.1268 12.8169V21.2189C32.8764 21.4184 34.555 22.0283 36.0275 22.9998C37.5 23.9713 38.7252 25.277 39.6044 26.8119C40.4837 28.3469 40.9923 30.0681 41.0895 31.837C41.1868 33.6059 40.8698 35.373 40.1641 36.9962L47.4016 41.1972C47.5312 40.7863 47.6 40.3585 47.6056 39.9276V24.9906C47.5588 24.1415 47.3164 23.3149 46.8978 22.5761C46.479 21.8373 45.8956 21.2066 45.1932 20.7335Z" fill="#1C4081"/>
<path d="M54.574 13.2482L33.3134 0.952386C32.0666 0.326097 30.6908 0 29.2958 0C27.9007 0 26.5251 0.326097 25.2782 0.952386L4.01755 13.2482C2.85057 14.0095 1.87896 15.035 1.18099 16.2417C0.483106 17.4484 0.0785493 18.8025 0 20.1946V44.7861C0.0770845 46.1812 0.48091 47.5386 1.17879 48.7486C1.87667 49.9587 2.84911 50.9875 4.01755 51.7518L25.2782 64.0479C26.5251 64.6741 27.9007 65 29.2958 65C30.6908 65 32.0666 64.6741 33.3134 64.0479L54.574 51.7518C55.7424 50.9875 56.7149 49.9587 57.4128 48.7486C58.1106 47.5386 58.5145 46.1812 58.5915 44.7861V20.1946C58.513 18.8025 58.1084 17.4484 57.4106 16.2417C56.7126 15.035 55.741 14.0095 54.574 13.2482ZM51.8443 41.9575C51.7818 43.0293 51.4694 44.0714 50.9319 45.0003C50.3945 45.9294 49.647 46.7193 48.7494 47.3069L32.3714 56.774C31.4147 57.2577 30.3579 57.5097 29.2862 57.5097C28.2144 57.5097 27.1575 57.2577 26.201 56.774L9.84219 47.3069C8.94455 46.7193 8.19705 45.9294 7.65965 45.0003C7.12217 44.0714 6.80971 43.0293 6.74727 41.9575V23.0425C6.80971 21.9707 7.12217 20.9286 7.65965 19.9997C8.19705 19.0706 8.94455 18.2807 9.84219 17.6931L26.1816 8.22598C27.1383 7.74232 28.1951 7.49029 29.2669 7.49029C30.3387 7.49029 31.3955 7.74232 32.3522 8.22598L48.7301 17.6931C49.6313 18.2786 50.3826 19.0676 50.9235 19.9967C51.4643 20.9258 51.7797 21.9691 51.8443 23.0425V41.9575Z" fill="#1C4081"/>
<path d="M21.0563 32.5C21.0563 34.039 21.5395 35.5435 22.4449 36.8232C23.3502 38.103 24.6371 39.1003 26.1427 39.6893C27.6483 40.2783 29.3049 40.4323 30.9033 40.1321C32.5016 39.8319 33.9696 39.0908 35.1219 38.0024C36.2742 36.9142 37.059 35.5276 37.3769 34.0181C37.6948 32.5086 37.5316 30.944 36.908 29.522C36.2844 28.1001 35.2284 26.8848 33.8734 26.0297C32.5185 25.1746 30.9253 24.7183 29.2958 24.7183C27.1106 24.7183 25.0148 25.5381 23.4697 26.9975C21.9244 28.4569 21.0563 30.4362 21.0563 32.5Z" fill="#1C4081"/>
<path d="M81.631 33.312C80.0686 33.312 78.6575 33.0386 77.3978 32.4917C76.1478 31.9351 75.1176 31.1441 74.3071 30.1188C73.5063 29.0836 72.9985 27.8532 72.7837 26.4275L76.9437 25.8123C77.2367 27.0232 77.8421 27.9558 78.76 28.61C79.678 29.2643 80.7229 29.5914 81.8947 29.5914C82.549 29.5914 83.1837 29.4889 83.7989 29.2838C84.4141 29.0788 84.917 28.776 85.3077 28.3757C85.708 27.9753 85.9082 27.4821 85.9082 26.8962C85.9082 26.6814 85.874 26.4763 85.8057 26.281C85.7471 26.0759 85.6446 25.8855 85.4981 25.7097C85.3516 25.534 85.1416 25.368 84.8682 25.2117C84.6046 25.0555 84.2677 24.9139 83.8575 24.7869L78.3792 23.1757C77.9691 23.0585 77.4906 22.8925 76.9437 22.6776C76.4066 22.4628 75.8842 22.1552 75.3764 21.7548C74.8686 21.3544 74.4438 20.8271 74.102 20.1728C73.77 19.5088 73.604 18.6739 73.604 17.6681C73.604 16.2521 73.9604 15.0754 74.6733 14.1379C75.3861 13.2004 76.3383 12.5022 77.5296 12.0433C78.721 11.5843 80.0393 11.3597 81.4846 11.3695C82.9396 11.389 84.2384 11.638 85.3809 12.1165C86.5234 12.595 87.4804 13.2932 88.2519 14.2112C89.0233 15.1193 89.58 16.2326 89.9217 17.5509L85.6153 18.2833C85.459 17.5997 85.1709 17.0235 84.751 16.5548C84.3311 16.0861 83.8282 15.7296 83.2423 15.4855C82.6661 15.2414 82.0607 15.1096 81.426 15.09C80.801 15.0705 80.2102 15.1584 79.6536 15.3537C79.1067 15.5392 78.6575 15.8127 78.306 16.174C77.9642 16.5353 77.7933 16.965 77.7933 17.463C77.7933 17.9219 77.9349 18.2979 78.2181 18.5909C78.5013 18.8741 78.8577 19.1035 79.2874 19.2793C79.717 19.4551 80.1565 19.6016 80.6057 19.7188L84.2677 20.7148C84.8145 20.8613 85.42 21.0566 86.084 21.3007C86.748 21.5351 87.3828 21.8671 87.9882 22.2968C88.6034 22.7167 89.1063 23.2733 89.4969 23.9666C89.8973 24.66 90.0975 25.5389 90.0975 26.6033C90.0975 27.736 89.8583 28.7272 89.3798 29.5768C88.911 30.4166 88.2763 31.1148 87.4755 31.6714C86.6748 32.2183 85.7666 32.6284 84.751 32.9019C83.7452 33.1753 82.7052 33.312 81.631 33.312ZM94.1959 32.8726V11.7796H98.1802V20.4512H107.613V11.7796H111.598V32.8726H107.613V24.1717H98.1802V32.8726H94.1959ZM116.882 32.8726V11.7796H120.866V32.8726H116.882ZM126.136 32.8726V11.7796H135.042C135.247 11.7796 135.521 11.7894 135.863 11.8089C136.214 11.8187 136.527 11.848 136.8 11.8968C138.06 12.0921 139.09 12.5071 139.891 13.1419C140.701 13.7766 141.297 14.5773 141.678 15.5441C142.059 16.5011 142.249 17.5704 142.249 18.752C142.249 19.9336 142.054 21.0078 141.663 21.9745C141.282 22.9315 140.687 23.7274 139.876 24.3621C139.075 24.9969 138.05 25.4119 136.8 25.6072C136.527 25.6463 136.214 25.6756 135.863 25.6951C135.511 25.7146 135.238 25.7244 135.042 25.7244H130.121V32.8726H126.136ZM130.121 22.0038H134.866C135.072 22.0038 135.296 21.9941 135.54 21.9745C135.784 21.955 136.009 21.9159 136.214 21.8573C136.751 21.7109 137.166 21.4667 137.459 21.125C137.752 20.7734 137.952 20.3877 138.06 19.9678C138.177 19.5381 138.235 19.1328 138.235 18.752C138.235 18.3712 138.177 17.9708 138.06 17.5509C137.952 17.1212 137.752 16.7355 137.459 16.3937C137.166 16.0421 136.751 15.7931 136.214 15.6466C136.009 15.5881 135.784 15.549 135.54 15.5295C135.296 15.5099 135.072 15.5002 134.866 15.5002H130.121V22.0038Z" fill="#1C4081"/>
<path d="M146.069 32.8726V11.7796H149.643L156.615 25.783L163.588 11.7796H167.162V32.8726H163.441V20.2754L157.318 32.8726H155.912L149.789 20.2754V32.8726H146.069ZM170.688 32.8726L177.133 11.7796H183.08L189.525 32.8726H185.423L179.681 14.2697H180.443L174.789 32.8726H170.688ZM174.555 28.4782V24.7576H185.687V28.4782H174.555ZM191.271 32.8726L198.361 22.2089L191.476 11.7796H196.369L200.851 18.8106L205.275 11.7796H210.196L203.312 22.2089L210.372 32.8726H205.48L200.851 25.6072L196.193 32.8726H191.271Z" fill="#BB1215"/>
<path d="M72.9139 56.1277V44.4094H74.1102V54.9803H79.6764V56.1277H72.9139ZM85.9784 56.3718C84.812 56.3718 83.8273 56.1141 83.0244 55.5987C82.2215 55.0779 81.6138 54.3591 81.2015 53.4422C80.7892 52.5254 80.5831 51.4675 80.5831 50.2685C80.5831 49.0696 80.7892 48.0117 81.2015 47.0948C81.6138 46.178 82.2215 45.4619 83.0244 44.9465C83.8273 44.4257 84.812 44.1652 85.9784 44.1652C87.1502 44.1652 88.1349 44.4257 88.9324 44.9465C89.7353 45.4619 90.3429 46.178 90.7552 47.0948C91.173 48.0117 91.3818 49.0696 91.3818 50.2685C91.3818 51.4675 91.173 52.5254 90.7552 53.4422C90.3429 54.3591 89.7353 55.0779 88.9324 55.5987C88.1349 56.1141 87.1502 56.3718 85.9784 56.3718ZM85.9784 55.2244C86.8952 55.2244 87.6602 55.0155 88.2732 54.5978C88.8863 54.1801 89.3447 53.5996 89.6485 52.8563C89.9577 52.1077 90.1123 51.2451 90.1123 50.2685C90.1123 49.292 89.9577 48.4321 89.6485 47.6889C89.3447 46.9456 88.8863 46.3651 88.2732 45.9474C87.6602 45.5297 86.8952 45.3181 85.9784 45.3127C85.0615 45.3127 84.2993 45.5215 83.6917 45.9393C83.0841 46.357 82.6256 46.9402 82.3164 47.6889C82.0126 48.4321 81.858 49.292 81.8526 50.2685C81.8471 51.2451 81.9963 52.1049 82.3001 52.8482C82.6094 53.586 83.0705 54.1665 83.6835 54.5897C84.2966 55.0074 85.0615 55.219 85.9784 55.2244ZM98.1952 56.3718C97.3706 56.3718 96.6274 56.2281 95.9655 55.9405C95.3036 55.653 94.7394 55.2434 94.2729 54.7117C93.8117 54.1801 93.4591 53.5399 93.215 52.7912C92.9708 52.0371 92.8488 51.1962 92.8488 50.2685C92.8488 49.0424 93.0603 47.9737 93.4835 47.0623C93.9121 46.1454 94.5251 45.4347 95.3226 44.9302C96.1201 44.4257 97.0777 44.1734 98.1952 44.1734C99.443 44.1734 100.458 44.4663 101.239 45.0523C102.025 45.6327 102.573 46.414 102.883 47.3959L101.678 47.6889C101.423 46.9728 101.003 46.4004 100.417 45.9718C99.8364 45.5432 99.1121 45.3289 98.2441 45.3289C97.3272 45.3235 96.565 45.5297 95.9574 45.9474C95.3498 46.3597 94.8913 46.9402 94.5821 47.6889C94.2783 48.4321 94.1237 49.292 94.1183 50.2685C94.1128 51.2451 94.262 52.1049 94.5658 52.8482C94.8751 53.586 95.3362 54.1665 95.9492 54.5897C96.5623 55.0074 97.3272 55.219 98.2441 55.2244C99.085 55.2244 99.7794 55.0616 100.327 54.7361C100.875 54.4106 101.29 53.9441 101.572 53.3364C101.86 52.7288 102.023 52.01 102.061 51.18H99.3589V50.1546H103.314C103.33 50.2794 103.338 50.4123 103.338 50.5534C103.344 50.689 103.346 50.7866 103.346 50.8463C103.346 51.9042 103.157 52.8509 102.777 53.6864C102.397 54.5164 101.825 55.1729 101.06 55.6557C100.3 56.1331 99.3454 56.3718 98.1952 56.3718ZM105.626 56.1277V44.4094H106.822V56.1277H105.626ZM113.819 56.3718C113 56.3718 112.262 56.2362 111.606 55.9649C110.955 55.6882 110.415 55.2976 109.986 54.7931C109.563 54.2886 109.287 53.6891 109.156 52.9947L110.377 52.7912C110.572 53.5507 110.985 54.1475 111.614 54.5815C112.243 55.0101 112.995 55.2244 113.868 55.2244C114.443 55.2244 114.959 55.1349 115.414 54.9559C115.87 54.7714 116.228 54.511 116.488 54.1746C116.749 53.8383 116.879 53.4395 116.879 52.9784C116.879 52.6746 116.825 52.4169 116.716 52.2053C116.608 51.9883 116.464 51.8093 116.285 51.6682C116.106 51.5272 115.911 51.4105 115.699 51.3183C115.488 51.2206 115.281 51.142 115.081 51.0823L112.11 50.1953C111.752 50.0922 111.421 49.962 111.118 49.8047C110.814 49.6419 110.548 49.4493 110.32 49.2269C110.098 48.999 109.924 48.7332 109.799 48.4294C109.674 48.1256 109.612 47.7784 109.612 47.3878C109.612 46.7259 109.786 46.1536 110.133 45.6707C110.48 45.1879 110.955 44.8163 111.557 44.5559C112.159 44.2954 112.845 44.168 113.616 44.1734C114.397 44.1734 115.094 44.3117 115.707 44.5884C116.326 44.8651 116.836 45.2611 117.237 45.7765C117.639 46.2865 117.904 46.8914 118.035 47.5912L116.781 47.8191C116.7 47.3091 116.513 46.867 116.22 46.4926C115.927 46.1183 115.553 45.8308 115.097 45.63C114.647 45.4239 114.15 45.3181 113.608 45.3127C113.081 45.3127 112.612 45.4022 112.2 45.5812C111.793 45.7548 111.47 45.9935 111.231 46.2973C110.993 46.6011 110.873 46.9483 110.873 47.339C110.873 47.735 110.982 48.0524 111.199 48.2911C111.421 48.5298 111.693 48.7169 112.013 48.8526C112.338 48.9882 112.653 49.0994 112.957 49.1862L115.252 49.8616C115.49 49.9267 115.77 50.0217 116.09 50.1465C116.415 50.2658 116.73 50.4394 117.034 50.6673C117.343 50.8897 117.598 51.1827 117.799 51.5462C117.999 51.9096 118.1 52.3708 118.1 52.9296C118.1 53.4721 117.991 53.9576 117.774 54.3862C117.563 54.8148 117.262 55.1756 116.871 55.4685C116.486 55.7615 116.033 55.9839 115.512 56.1358C114.997 56.2932 114.432 56.3718 113.819 56.3718ZM123.385 56.1277V45.5568H119.291V44.4094H128.674V45.5568H124.581V56.1277H123.385ZM130.63 56.1277V44.4094H131.826V56.1277H130.63ZM139.498 56.3718C138.332 56.3718 137.347 56.1141 136.544 55.5987C135.742 55.0779 135.134 54.3591 134.722 53.4422C134.309 52.5254 134.103 51.4675 134.103 50.2685C134.103 49.0696 134.309 48.0117 134.722 47.0948C135.134 46.178 135.742 45.4619 136.544 44.9465C137.347 44.4257 138.332 44.1652 139.498 44.1652C140.86 44.1652 141.972 44.5152 142.835 45.215C143.698 45.9094 144.289 46.8426 144.609 48.0144L143.388 48.3318C143.139 47.4041 142.691 46.6689 142.046 46.1264C141.4 45.5839 140.551 45.3127 139.498 45.3127C138.582 45.3127 137.819 45.5215 137.212 45.9393C136.604 46.357 136.146 46.9402 135.836 47.6889C135.533 48.4321 135.375 49.292 135.365 50.2685C135.359 51.2451 135.508 52.1049 135.812 52.8482C136.121 53.5914 136.582 54.1746 137.195 54.5978C137.814 55.0155 138.582 55.2244 139.498 55.2244C140.551 55.2244 141.4 54.9531 142.046 54.4106C142.691 53.8627 143.139 53.1276 143.388 52.2053L144.609 52.5227C144.289 53.6945 143.698 54.6303 142.835 55.3302C141.972 56.0246 140.86 56.3718 139.498 56.3718ZM155.384 56.3718C154.217 56.3718 153.232 56.1141 152.43 55.5987C151.627 55.0779 151.019 54.3591 150.607 53.4422C150.194 52.5254 149.988 51.4675 149.988 50.2685C149.988 49.0696 150.194 48.0117 150.607 47.0948C151.019 46.178 151.627 45.4619 152.43 44.9465C153.232 44.4257 154.217 44.1652 155.384 44.1652C156.745 44.1652 157.857 44.5152 158.72 45.215C159.583 45.9094 160.174 46.8426 160.494 48.0144L159.273 48.3318C159.024 47.4041 158.576 46.6689 157.931 46.1264C157.285 45.5839 156.436 45.3127 155.384 45.3127C154.467 45.3127 153.704 45.5215 153.097 45.9393C152.489 46.357 152.031 46.9402 151.722 47.6889C151.418 48.4321 151.26 49.292 151.25 50.2685C151.244 51.2451 151.393 52.1049 151.697 52.8482C152.006 53.5914 152.468 54.1746 153.081 54.5978C153.699 55.0155 154.467 55.2244 155.384 55.2244C156.436 55.2244 157.285 54.9531 157.931 54.4106C158.576 53.8627 159.024 53.1276 159.273 52.2053L160.494 52.5227C160.174 53.6945 159.583 54.6303 158.72 55.3302C157.857 56.0246 156.745 56.3718 155.384 56.3718ZM167.522 56.3718C166.356 56.3718 165.371 56.1141 164.568 55.5987C163.765 55.0779 163.158 54.3591 162.745 53.4422C162.333 52.5254 162.127 51.4675 162.127 50.2685C162.127 49.0696 162.333 48.0117 162.745 47.0948C163.158 46.178 163.765 45.4619 164.568 44.9465C165.371 44.4257 166.356 44.1652 167.522 44.1652C168.694 44.1652 169.679 44.4257 170.476 44.9465C171.279 45.4619 171.887 46.178 172.299 47.0948C172.717 48.0117 172.926 49.0696 172.926 50.2685C172.926 51.4675 172.717 52.5254 172.299 53.4422C171.887 54.3591 171.279 55.0779 170.476 55.5987C169.679 56.1141 168.694 56.3718 167.522 56.3718ZM167.522 55.2244C168.439 55.2244 169.204 55.0155 169.817 54.5978C170.43 54.1801 170.888 53.5996 171.192 52.8563C171.501 52.1077 171.656 51.2451 171.656 50.2685C171.656 49.292 171.501 48.4321 171.192 47.6889C170.888 46.9456 170.43 46.3651 169.817 45.9474C169.204 45.5297 168.439 45.3181 167.522 45.3127C166.605 45.3127 165.843 45.5215 165.235 45.9393C164.628 46.357 164.169 46.9402 163.86 47.6889C163.556 48.4321 163.402 49.292 163.396 50.2685C163.391 51.2451 163.54 52.1049 163.844 52.8482C164.153 53.586 164.614 54.1665 165.227 54.5897C165.84 55.0074 166.605 55.219 167.522 55.2244ZM175.044 56.1277V44.4094H176.142L180.748 54.2641L185.33 44.4094H186.444V56.1195H185.305V47.0785L181.131 56.1277H180.357L176.191 47.0785V56.1277H175.044ZM189.216 56.1277V44.4094H193.741C193.855 44.4094 193.982 44.4148 194.124 44.4257C194.27 44.4311 194.416 44.4474 194.563 44.4745C195.176 44.5667 195.694 44.781 196.117 45.1174C196.546 45.4483 196.869 45.866 197.086 46.3706C197.308 46.8751 197.419 47.4339 197.419 48.0469C197.419 48.6546 197.308 49.2106 197.086 49.7152C196.863 50.2197 196.538 50.6402 196.109 50.9765C195.686 51.3074 195.171 51.519 194.563 51.6113C194.416 51.633 194.27 51.6492 194.124 51.6601C193.982 51.6709 193.855 51.6764 193.741 51.6764H190.413V56.1277H189.216ZM190.413 50.5371H193.708C193.806 50.5371 193.92 50.5317 194.05 50.5208C194.18 50.5099 194.308 50.491 194.433 50.4638C194.834 50.377 195.162 50.2116 195.417 49.9674C195.678 49.7233 195.87 49.4331 195.995 49.0967C196.125 48.7603 196.19 48.4104 196.19 48.0469C196.19 47.6835 196.125 47.3335 195.995 46.9972C195.87 46.6554 195.678 46.3624 195.417 46.1183C195.162 45.8742 194.834 45.7087 194.433 45.6219C194.308 45.5948 194.18 45.5785 194.05 45.5731C193.92 45.5622 193.806 45.5568 193.708 45.5568H190.413V50.5371ZM197.903 56.1277L201.939 44.4094H203.526L207.562 56.1277H206.317L202.484 45.0767H202.956L199.148 56.1277H197.903ZM199.701 53.2876V52.1646H205.756V53.2876H199.701ZM209.52 56.1277V44.4094H210.724L217.178 54.0119V44.4094H218.382V56.1277H217.178L210.724 46.517V56.1277H209.52ZM223.941 56.1277V51.2206L220.011 44.4094H221.394L224.543 49.8535L227.676 44.4094H229.06L225.146 51.2206V56.1277H223.941Z" fill="#76838B"/>
</svg>
