<svg width="184" height="83" viewBox="0 0 184 83" fill="none" xmlns="http://www.w3.org/2000/svg">
<g clip-path="url(#clip0_621_1501)">
<path d="M45.2757 57.6812L52.1886 25.3186H6.91392L0 57.6812H45.2757Z" fill="#D5DDE1"/>
<path d="M50.6984 26.5103L7.87699 26.5123L7.8516 26.6538C7.8516 26.6538 33.0255 31.798 33.5243 31.8849C39.3086 32.9006 39.1288 34.0113 39.1288 34.0113C43.1821 33.991 43.6798 34.1538 44.3889 34.7419C46.5202 36.5126 43.0561 41.7315 43.0561 41.7315C42.5604 42.0953 5.11183 56.4827 5.11183 56.4827H44.2914L50.6974 26.5113L50.6984 26.5103ZM58.9085 26.5103L57.2821 34.1275C56.699 36.7592 58.4829 37.9507 61.4543 37.9507C64.4368 37.9507 66.7042 36.7582 67.2721 34.1275C68.9259 26.5103 67.2538 34.1275 68.9259 26.5103H66.432C66.432 26.5103 65.1723 32.37 64.9539 33.3735C64.578 35.131 63.6465 36.1801 61.819 36.1801C59.9112 36.1649 59.5191 35.1139 59.9102 33.3735C59.8665 33.5494 61.3943 26.5103 61.3943 26.5103H58.9085ZM71.3152 26.5103L68.9178 37.7476H71.1272L72.8705 29.4078H72.9213L75.7098 37.7476H78.8447L81.2381 26.5103H79.0337L77.2539 34.9431H77.2234L74.5436 26.5103H71.3152ZM83.6284 26.5103L81.2381 37.7476H83.7259L86.1203 26.5103H83.6284ZM87.7893 26.5103L87.3942 28.2991H90.909L88.8905 37.7486H91.3804L93.3968 28.2991H96.9087L97.2876 26.5103H87.7893ZM98.9597 26.5103L96.549 37.7476H104.735L105.116 35.9588H99.432L100.078 32.8874H105.039L105.398 31.228H100.44L101.067 28.2981H106.757L107.132 26.5093H98.9587L98.9597 26.5103ZM108.948 26.5103L106.556 37.7476H111.658C114.809 37.7476 117.834 35.6798 118.513 31.6363C118.997 28.7691 117.847 26.5103 114.429 26.5103H108.948ZM127.672 26.5103C124.745 26.5103 123.289 27.5442 123.073 29.1612C122.71 31.8536 127.499 33.4534 127.139 35.0654C126.915 36.0073 125.752 35.9598 124.807 35.9598H121.737L121.356 37.7476H125.17C128.289 37.7476 129.644 36.6339 129.894 35.0967C130.349 32.3387 125.485 30.9147 125.865 29.1299C125.989 28.5801 126.601 28.2981 127.955 28.2981H130.618L131.009 26.5103H127.672ZM132.289 26.5103L131.898 28.2991H135.41L133.394 37.7486H135.882L137.897 28.2991H141.412L141.79 26.5103H132.289ZM144.427 26.5103L137.955 37.7476H140.444L145.406 28.7388L146.399 35.9588H142.836L141.861 37.7476H149.167L147.405 26.5083H144.427V26.5103ZM150.153 26.5103L149.761 28.2991H153.272L151.256 37.7486H153.745L155.76 28.2991H159.27L159.651 26.5103H150.153ZM161.311 26.5103L158.898 37.7476H167.089L167.47 35.9588H161.779L162.426 32.8874H167.389L167.749 31.228H162.79L163.42 28.2981H169.105L169.483 26.5093H161.311V26.5103ZM174.96 26.5103C172.029 26.5103 170.581 27.5442 170.359 29.1612C169.997 31.8536 174.785 33.4534 174.425 35.0654C174.202 36.0073 173.036 35.9598 172.091 35.9598H169.02L168.643 37.7476H172.453C175.572 37.7476 176.929 36.6339 177.183 35.0967C177.636 32.3387 172.771 30.9147 173.147 29.1299C173.274 28.5801 173.889 28.2981 175.244 28.2981H177.901L178.3 26.5103H174.96ZM111.074 28.2991H113.613C115.676 28.2991 116.412 29.8202 116.098 31.6049C115.658 34.1285 114.036 35.9598 111.219 35.9598H109.439L111.074 28.2991ZM28.446 33.4392C27.3113 33.4312 26.5119 33.4473 26.4204 33.4413H6.40095L1.48218 56.4898C1.48218 56.4898 16.5483 49.1344 18.3911 48.1925C22.167 46.2622 27.3875 43.7134 32.2118 42.0782C33.1312 41.7689 37.0697 40.5612 39.3635 40.1539C40.2523 39.9962 40.6302 39.8457 40.6191 39.6809C40.5845 39.2079 39.6906 39.1766 38.1769 39.2504C33.5578 39.4667 24.7087 42.9726 22.1609 44.3096L19.2851 35.4423H37.6588C38.2785 33.7182 31.8512 33.4675 28.445 33.4413L28.446 33.4392ZM38.1881 35.5757C38.055 35.5757 37.9402 35.6647 37.7858 35.8739C37.6446 36.0538 37.5298 36.176 37.1641 36.359C36.5973 36.6369 35.1131 36.7925 34.4183 36.8501C33.7519 36.9057 33.571 36.9734 33.5599 37.2291C33.5528 37.4585 33.6584 37.5889 34.6153 37.5889C36.8157 37.5889 40.7765 36.7632 41.9701 37.1412C42.6 37.3413 42.0941 38.4581 41.577 39.9265C41.3769 40.4925 41.77 40.453 41.9976 40.2044C42.2261 39.9538 43.2532 38.0831 43.3649 37.1311C43.5234 35.7778 42.3572 35.5747 40.7481 35.5747H38.1881V35.5757ZM70.7433 45.0403C67.2487 45.0403 64.3352 46.8574 63.4819 50.8535C62.8074 54.0491 64.7619 56.6808 68.2412 56.6808C71.7703 56.6808 74.6045 54.9435 75.4873 50.8535C76.2096 47.5174 74.2083 45.0403 70.7433 45.0403V45.0403ZM170.445 45.0403C166.979 45.0403 163.643 46.8251 162.791 50.8535C161.926 54.8799 164.492 56.6808 167.96 56.6808C168.919 56.6808 169.838 56.5727 170.749 56.4332L171.363 54.5009C170.466 54.7232 169.517 54.896 168.336 54.896C166.082 54.896 164.811 53.3922 165.345 50.8535C165.88 48.3138 167.8 46.8251 170.05 46.8251C171.203 46.8251 171.989 46.9818 172.698 47.1859L172.92 45.291C172.119 45.1505 171.285 45.0403 170.445 45.0403V45.0403ZM81.5743 45.2424C78.6426 45.2424 77.1909 46.2763 76.9725 47.8923C76.6098 50.5887 81.3965 52.1855 81.039 53.8005C80.8175 54.7404 79.6503 54.6929 78.7055 54.6929H75.6346L75.2537 56.4787H79.0692C82.1879 56.4787 83.541 55.367 83.7929 53.8308C84.2501 51.0738 79.3841 49.6468 79.761 47.861C79.887 47.3112 80.5026 47.0303 81.8608 47.0303H84.5172L84.9134 45.2414H81.5743V45.2424ZM86.1893 45.2424L85.7972 47.0303H89.309L87.2926 56.4797H89.7814L91.8009 47.0303H95.3107L95.6856 45.2414H86.1893V45.2424ZM122.547 45.2424C119.614 45.2424 118.163 46.2763 117.945 47.8923C117.58 50.5887 122.368 52.1855 122.01 53.8005C121.789 54.7404 120.622 54.6929 119.677 54.6929H116.606L116.227 56.4787H120.041C123.157 56.4787 124.513 55.367 124.764 53.8308C125.222 51.0738 120.357 49.6468 120.728 47.861C120.855 47.3112 121.473 47.0303 122.828 47.0303H125.489L125.881 45.2414H122.546L122.547 45.2424ZM128.038 45.2424L125.627 56.4787H133.82L134.197 54.6929H128.51L129.157 51.6196H134.119L134.48 49.9571H129.521L130.147 47.0303H135.836L136.21 45.2414H128.039L128.038 45.2424ZM138.02 45.2424L135.625 56.4787H138.114L140.129 47.0141H142.365C143.751 47.0141 143.875 47.7802 143.735 48.4866C143.468 49.8176 142.302 50.3502 141.026 50.3502C140.79 50.3502 140.393 50.3664 140.08 50.3189L142.129 56.4787H144.853L142.994 51.6347C144.649 51.4013 146.069 50.2269 146.222 48.1096C146.367 46.2288 145.485 45.2414 143.281 45.2414H138.019L138.02 45.2424ZM174.93 45.2424L172.525 56.4787H180.716L181.093 54.6929H175.408L176.053 51.6196H181.015L181.376 49.9571H176.417L177.047 47.0303H182.731L183.108 45.2414H174.93V45.2424ZM54.9172 45.2435L52.5218 56.4787H55.0117L57.0282 47.0293H59.0579C59.9742 47.0293 60.6009 47.483 60.3358 48.7059C60.1956 49.379 59.579 50.5392 57.8774 50.5392C57.5005 50.5392 57.0912 50.4917 56.7783 50.4604L56.9032 52.0925C57.2639 52.1249 57.6905 52.1835 58.0857 52.1835C60.3216 52.1835 62.2903 50.9 62.7485 48.7675C63.0461 47.3587 62.7627 45.2435 60.3216 45.2435H54.9172ZM98.3451 45.2435L91.8761 56.4787H94.3609L99.3264 47.4679L100.315 54.6929H96.7573L95.7821 56.4787H103.086L101.327 45.2435H98.3451ZM106.779 45.2435L104.386 56.4787H112.027L112.42 54.6929H107.269L109.285 45.2435H106.779ZM147.545 45.2435L149.245 56.4787H152.187L158.618 45.2435H156.159L151.199 54.2563L150.033 45.2435H147.544H147.545ZM160.117 45.2435L157.725 56.4787H160.214L162.607 45.2435H160.118H160.117ZM70.3501 46.8251C72.65 46.8251 73.4231 48.5786 72.9355 50.8535C72.3961 53.3932 70.8855 54.896 68.6343 54.896C66.3019 54.896 65.5299 53.0314 66.0175 50.8535C66.5996 48.3148 68.1 46.8251 70.3501 46.8251V46.8251Z" fill="#76838B"/>
<path d="M55.802 41.0815L55.6262 41.9153H183.827L184 41.0815H55.8111H55.802Z" fill="#76838B"/>
</g>
<defs>
<clipPath id="clip0_621_1501">
<rect width="184" height="35" fill="white" transform="translate(0 24)"/>
</clipPath>
</defs>
</svg>
