<svg width="184" height="83" viewBox="0 0 184 83" fill="none" xmlns="http://www.w3.org/2000/svg">
<g clip-path="url(#clip0_621_1480)">
<path d="M148.292 53.8389C148.292 52.0604 147.036 50.7581 145.305 50.7581C143.577 50.7581 142.319 52.0604 142.319 53.8389C142.319 55.6145 143.577 56.9146 145.305 56.9146C147.036 56.9146 148.292 55.6123 148.292 53.8389ZM144.52 53.9969V56.0091H143.873V51.572H145.482C146.425 51.572 146.857 51.9854 146.857 52.7913C146.857 53.2877 146.523 53.6809 146.093 53.7379V53.7566C146.466 53.8165 146.604 54.1513 146.681 54.7638C146.74 55.1606 146.818 55.8489 146.959 56.0105H146.193C146.014 55.5935 146.032 55.0034 145.895 54.5091C145.781 54.1332 145.582 53.9962 145.153 53.9962H144.524V53.9983L144.52 53.9969V53.9969ZM145.323 53.4233C145.952 53.4233 146.132 53.0871 146.132 52.7906C146.132 52.4399 145.952 52.1629 145.323 52.1629H144.52V53.4247H145.323V53.4233ZM141.607 53.8389C141.607 51.6477 143.34 50.1665 145.302 50.1665C147.27 50.1665 149.001 51.6477 149.001 53.8389C149.001 56.0257 147.271 57.5084 145.302 57.5084C143.34 57.5084 141.607 56.0257 141.607 53.8389Z" fill="#76838B"/>
<path d="M128.801 56.8685L124.541 52.0727L120.319 56.8685H111.434L120.118 47.075L111.434 37.2787H120.596L124.899 42.0376L129.04 37.2787H137.882L129.241 47.0339L138.002 56.8685H128.801ZM94.3724 56.8685V26.0083H111.434V32.887H101.599V37.2787H111.434V43.8976H101.599V49.9725H111.434V56.8685H94.3724Z" fill="#D5DDE1"/>
<path d="M87.1721 26.0083V38.6379H87.0924C85.4989 36.7996 83.5073 36.1589 81.198 36.1589C76.4658 36.1589 72.9009 39.3904 71.6496 43.6595C70.2222 38.9547 66.5415 36.0709 61.0849 36.0709C56.6524 36.0709 53.1536 38.0672 51.3259 41.3211V37.2779H42.1656V32.8877H52.1632V26.0097H34V56.8685H42.1656V43.8976H50.3045C50.0538 44.895 49.9285 45.92 49.9315 46.9487C49.9315 53.383 54.8297 57.9045 61.0834 57.9045C66.3403 57.9045 69.8075 55.4248 71.6395 50.9104H64.6412C63.6953 52.269 62.9766 52.6701 61.0841 52.6701C58.8906 52.6701 56.9974 50.7481 56.9974 48.4725H71.2471C71.8652 53.5843 75.8326 57.9918 81.2778 57.9918C83.6266 57.9918 85.7771 56.8324 87.0916 54.8736H87.1707V56.8728H94.3703V26.0097H87.1721V26.0083V26.0083ZM57.2245 43.9899C57.6795 42.0289 59.1939 40.7476 61.0841 40.7476C63.1656 40.7476 64.6031 41.9892 64.9804 43.9899H57.2245ZM82.8029 52.1723C80.1501 52.1723 78.5013 49.6911 78.5013 47.0995C78.5013 44.329 79.9359 41.6675 82.8029 41.6675C85.7778 41.6675 86.963 44.3305 86.963 47.0995C86.963 49.7243 85.7081 52.1723 82.8029 52.1723Z" fill="#76838B"/>
</g>
<defs>
<clipPath id="clip0_621_1480">
<rect width="115" height="32" fill="white" transform="translate(34 26)"/>
</clipPath>
</defs>
</svg>
