<svg width="20" height="20" viewBox="0 0 20 20" fill="none" xmlns="http://www.w3.org/2000/svg">
<path fill-rule="evenodd" clip-rule="evenodd" d="M5.41167 3.93597C4.67257 4.36302 4.08333 5.35222 4.08333 7.03345V12.9668C4.08333 14.648 4.67257 15.6372 5.41167 16.0643C6.15066 16.4912 7.30171 16.5078 8.75849 15.6672L13.9085 12.7005C15.365 11.86 15.9271 10.8544 15.9271 10.0001C15.9271 9.14586 15.3651 8.14028 13.9087 7.29984C13.9086 7.2998 13.9087 7.29987 13.9087 7.29984L8.75896 4.33333C7.30218 3.49274 6.15066 3.50898 5.41167 3.93597ZM9.5077 3.03356C7.77297 2.03273 6.02421 1.84965 4.66123 2.63718C3.29825 3.42471 2.58333 5.03134 2.58333 7.03345V12.9668C2.58333 14.9689 3.29825 16.5755 4.66123 17.363C6.02421 18.1506 7.77297 17.9675 9.5077 16.9667M9.5077 16.9667L14.6577 14C16.3928 12.9988 17.4271 11.575 17.4271 10.0001C17.4271 8.42524 16.3933 7.0017 14.6582 6.0005L9.5077 3.03356" fill="#292D32"/>
</svg>
