<svg width="32" height="32" viewBox="0 0 32 32" fill="none" xmlns="http://www.w3.org/2000/svg">
<path d="M8.05005 11.8901L16 16.4951L23.89 11.9201" stroke="#242425" stroke-width="1.5" stroke-linecap="round" stroke-linejoin="round"/>
<path d="M16 24.655V16.48" stroke="#242425" stroke-width="1.5" stroke-linecap="round" stroke-linejoin="round"/>
<path d="M14.14 7.43479L9.34 10.1048C8.26 10.7048 7.35999 12.2198 7.35999 13.4648V18.5498C7.35999 19.7948 8.245 21.3098 9.34 21.9098L14.14 24.5798C15.16 25.1498 16.84 25.1498 17.875 24.5798L22.675 21.9098C23.755 21.3098 24.655 19.7948 24.655 18.5498V13.4498C24.655 12.2048 23.77 10.6898 22.675 10.0898L17.875 7.41978C16.84 6.84978 15.16 6.84979 14.14 7.43479Z" stroke="#242425" stroke-width="1.5" stroke-linecap="round" stroke-linejoin="round"/>
<path d="M31 20.5C31 26.305 26.305 31 20.5 31L22.075 28.375" stroke="#242425" stroke-width="1.5" stroke-linecap="round" stroke-linejoin="round"/>
<path d="M1 11.5C1 5.695 5.695 1 11.5 1L9.92502 3.625" stroke="#242425" stroke-width="1.5" stroke-linecap="round" stroke-linejoin="round"/>
</svg>
