<svg width="24" height="24" viewBox="0 0 24 24" fill="none" xmlns="http://www.w3.org/2000/svg">
<path d="M3.16992 7.44L11.9999 12.55L14.1924 11.28" stroke="#292D32" stroke-width="1.5" stroke-linecap="round" stroke-linejoin="round"/>
<path d="M12 21.61V12.54" stroke="#292D32" stroke-width="1.5" stroke-linecap="round" stroke-linejoin="round"/>
<path d="M2.39014 12.005V9.18001C2.39014 7.80001 3.38012 6.12003 4.59012 5.45003L9.93011 2.48C11.0701 1.84 12.9301 1.84 14.0801 2.48L15.4151 3.22251M7.26012 20.045L9.93011 21.53C11.0701 22.16 12.9401 22.16 14.0801 21.53L19.4201 18.56C20.6301 17.89 21.6201 16.21 21.6201 14.83V12.005" stroke="#292D32" stroke-width="1.5" stroke-linecap="round" stroke-linejoin="round"/>
<path d="M7.50977 4.09998L12.2548 6.84" stroke="#292D32" stroke-width="1.5" stroke-linecap="round" stroke-linejoin="round"/>
<path d="M22 7C22 8.656 20.656 10 19 10C17.344 10 16.333 8.332 16.333 8.332M16.333 8.332H17.689M16.333 8.332V9.832M16 7C16 5.344 17.332 4 19 4C21.001 4 22 5.668 22 5.668M22 5.668V4.168M22 5.668H20.668" stroke="#292D32" stroke-width="1.5" stroke-linecap="round" stroke-linejoin="round"/>
</svg>
