<svg width="33" height="33" viewBox="0 0 33 33" fill="none" xmlns="http://www.w3.org/2000/svg">
<path d="M27.5 6.875C27.5 7.63439 26.8844 8.25 26.125 8.25C25.3656 8.25 24.75 7.63439 24.75 6.875C24.75 6.11561 25.3656 5.5 26.125 5.5C26.8844 5.5 27.5 6.11561 27.5 6.875Z" fill="#242425"/>
<path d="M27.5 16.5C27.5 17.2594 26.8844 17.875 26.125 17.875C25.3656 17.875 24.75 17.2594 24.75 16.5C24.75 15.7406 25.3656 15.125 26.125 15.125C26.8844 15.125 27.5 15.7406 27.5 16.5Z" fill="#242425"/>
<path d="M27.5 26.125C27.5 26.8844 26.8844 27.5 26.125 27.5C25.3656 27.5 24.75 26.8844 24.75 26.125C24.75 25.3656 25.3656 24.75 26.125 24.75C26.8844 24.75 27.5 25.3656 27.5 26.125Z" fill="#242425"/>
<path d="M17.875 26.125C17.875 26.8844 17.2594 27.5 16.5 27.5C15.7406 27.5 15.125 26.8844 15.125 26.125C15.125 25.3656 15.7406 24.75 16.5 24.75C17.2594 24.75 17.875 25.3656 17.875 26.125Z" fill="#242425"/>
<path d="M17.875 16.5C17.875 17.2594 17.2594 17.875 16.5 17.875C15.7406 17.875 15.125 17.2594 15.125 16.5C15.125 15.7406 15.7406 15.125 16.5 15.125C17.2594 15.125 17.875 15.7406 17.875 16.5Z" fill="#242425"/>
<path d="M17.875 6.875C17.875 7.63439 17.2594 8.25 16.5 8.25C15.7406 8.25 15.125 7.63439 15.125 6.875C15.125 6.11561 15.7406 5.5 16.5 5.5C17.2594 5.5 17.875 6.11561 17.875 6.875Z" fill="#242425"/>
<path d="M8.25 6.875C8.25 7.63439 7.63439 8.25 6.875 8.25C6.11561 8.25 5.5 7.63439 5.5 6.875C5.5 6.11561 6.11561 5.5 6.875 5.5C7.63439 5.5 8.25 6.11561 8.25 6.875Z" fill="#242425"/>
<path d="M8.25 16.5C8.25 17.2594 7.63439 17.875 6.875 17.875C6.11561 17.875 5.5 17.2594 5.5 16.5C5.5 15.7406 6.11561 15.125 6.875 15.125C7.63439 15.125 8.25 15.7406 8.25 16.5Z" fill="#242425"/>
<path d="M8.25 26.125C8.25 26.8844 7.63439 27.5 6.875 27.5C6.11561 27.5 5.5 26.8844 5.5 26.125C5.5 25.3656 6.11561 24.75 6.875 24.75C7.63439 24.75 8.25 25.3656 8.25 26.125Z" fill="#242425"/>
<path d="M27.5 6.875C27.5 7.63439 26.8844 8.25 26.125 8.25C25.3656 8.25 24.75 7.63439 24.75 6.875C24.75 6.11561 25.3656 5.5 26.125 5.5C26.8844 5.5 27.5 6.11561 27.5 6.875Z" stroke="#242425" stroke-width="3" stroke-linecap="round" stroke-linejoin="round"/>
<path d="M27.5 16.5C27.5 17.2594 26.8844 17.875 26.125 17.875C25.3656 17.875 24.75 17.2594 24.75 16.5C24.75 15.7406 25.3656 15.125 26.125 15.125C26.8844 15.125 27.5 15.7406 27.5 16.5Z" stroke="#242425" stroke-width="3" stroke-linecap="round" stroke-linejoin="round"/>
<path d="M27.5 26.125C27.5 26.8844 26.8844 27.5 26.125 27.5C25.3656 27.5 24.75 26.8844 24.75 26.125C24.75 25.3656 25.3656 24.75 26.125 24.75C26.8844 24.75 27.5 25.3656 27.5 26.125Z" stroke="#242425" stroke-width="3" stroke-linecap="round" stroke-linejoin="round"/>
<path d="M17.875 26.125C17.875 26.8844 17.2594 27.5 16.5 27.5C15.7406 27.5 15.125 26.8844 15.125 26.125C15.125 25.3656 15.7406 24.75 16.5 24.75C17.2594 24.75 17.875 25.3656 17.875 26.125Z" stroke="#242425" stroke-width="3" stroke-linecap="round" stroke-linejoin="round"/>
<path d="M17.875 16.5C17.875 17.2594 17.2594 17.875 16.5 17.875C15.7406 17.875 15.125 17.2594 15.125 16.5C15.125 15.7406 15.7406 15.125 16.5 15.125C17.2594 15.125 17.875 15.7406 17.875 16.5Z" stroke="#242425" stroke-width="3" stroke-linecap="round" stroke-linejoin="round"/>
<path d="M17.875 6.875C17.875 7.63439 17.2594 8.25 16.5 8.25C15.7406 8.25 15.125 7.63439 15.125 6.875C15.125 6.11561 15.7406 5.5 16.5 5.5C17.2594 5.5 17.875 6.11561 17.875 6.875Z" stroke="#242425" stroke-width="3" stroke-linecap="round" stroke-linejoin="round"/>
<path d="M8.25 6.875C8.25 7.63439 7.63439 8.25 6.875 8.25C6.11561 8.25 5.5 7.63439 5.5 6.875C5.5 6.11561 6.11561 5.5 6.875 5.5C7.63439 5.5 8.25 6.11561 8.25 6.875Z" stroke="#242425" stroke-width="3" stroke-linecap="round" stroke-linejoin="round"/>
<path d="M8.25 16.5C8.25 17.2594 7.63439 17.875 6.875 17.875C6.11561 17.875 5.5 17.2594 5.5 16.5C5.5 15.7406 6.11561 15.125 6.875 15.125C7.63439 15.125 8.25 15.7406 8.25 16.5Z" stroke="#242425" stroke-width="3" stroke-linecap="round" stroke-linejoin="round"/>
<path d="M8.25 26.125C8.25 26.8844 7.63439 27.5 6.875 27.5C6.11561 27.5 5.5 26.8844 5.5 26.125C5.5 25.3656 6.11561 24.75 6.875 24.75C7.63439 24.75 8.25 25.3656 8.25 26.125Z" stroke="#242425" stroke-width="3" stroke-linecap="round" stroke-linejoin="round"/>
</svg>
