<svg width="32" height="32" viewBox="0 0 32 32" fill="none" xmlns="http://www.w3.org/2000/svg">
<path d="M8.66675 29.3333V20" stroke="#242425" stroke-width="1.5" stroke-miterlimit="10" stroke-linecap="round" stroke-linejoin="round"/>
<path d="M8.66675 6.66675V2.66675" stroke="#242425" stroke-width="1.5" stroke-miterlimit="10" stroke-linecap="round" stroke-linejoin="round"/>
<path d="M23.3333 29.3333V25.3333" stroke="#242425" stroke-width="1.5" stroke-miterlimit="10" stroke-linecap="round" stroke-linejoin="round"/>
<path d="M23.3333 12.0001V2.66675" stroke="#242425" stroke-width="1.5" stroke-miterlimit="10" stroke-linecap="round" stroke-linejoin="round"/>
<path d="M12.6667 9.33341V17.3334C12.6667 18.8001 12.0001 20.0001 10.0001 20.0001H7.33341C5.33341 20.0001 4.66675 18.8001 4.66675 17.3334V9.33341C4.66675 7.86675 5.33341 6.66675 7.33341 6.66675H10.0001C12.0001 6.66675 12.6667 7.86675 12.6667 9.33341Z" stroke="#242425" stroke-width="1.5" stroke-miterlimit="10" stroke-linecap="round" stroke-linejoin="round"/>
<path d="M27.3333 14.6667V22.6667C27.3333 24.1333 26.6666 25.3333 24.6666 25.3333H21.9999C19.9999 25.3333 19.3333 24.1333 19.3333 22.6667V14.6667C19.3333 13.2 19.9999 12 21.9999 12H24.6666C26.6666 12 27.3333 13.2 27.3333 14.6667Z" stroke="#242425" stroke-width="1.5" stroke-miterlimit="10" stroke-linecap="round" stroke-linejoin="round"/>
</svg>
