<svg width="32" height="32" viewBox="0 0 32 32" fill="none" xmlns="http://www.w3.org/2000/svg">
<path d="M16 18.6667H17.3333C18.8 18.6667 20 17.4667 20 16.0001V2.66675H8C6 2.66675 4.25335 3.7734 3.34668 5.40007" stroke="#242425" stroke-width="1.5" stroke-linecap="round" stroke-linejoin="round"/>
<path d="M2.66675 22.6667C2.66675 24.8801 4.45341 26.6667 6.66675 26.6667H8.00008C8.00008 25.2001 9.20008 24.0001 10.6667 24.0001C12.1334 24.0001 13.3334 25.2001 13.3334 26.6667H18.6667C18.6667 25.2001 19.8667 24.0001 21.3334 24.0001C22.8001 24.0001 24.0001 25.2001 24.0001 26.6667H25.3334C27.5467 26.6667 29.3334 24.8801 29.3334 22.6667V18.6667H25.3334C24.6001 18.6667 24.0001 18.0667 24.0001 17.3334V13.3334C24.0001 12.6001 24.6001 12.0001 25.3334 12.0001H27.0534L24.7734 8.01343C24.2934 7.18676 23.4134 6.66675 22.4534 6.66675H20.0001V16.0001C20.0001 17.4667 18.8001 18.6667 17.3334 18.6667H16.0001" stroke="#242425" stroke-width="1.5" stroke-linecap="round" stroke-linejoin="round"/>
<path d="M10.6667 29.3333C12.1394 29.3333 13.3333 28.1394 13.3333 26.6667C13.3333 25.1939 12.1394 24 10.6667 24C9.19391 24 8 25.1939 8 26.6667C8 28.1394 9.19391 29.3333 10.6667 29.3333Z" stroke="#242425" stroke-width="1.5" stroke-linecap="round" stroke-linejoin="round"/>
<path d="M21.3334 29.3333C22.8062 29.3333 24.0001 28.1394 24.0001 26.6667C24.0001 25.1939 22.8062 24 21.3334 24C19.8607 24 18.6667 25.1939 18.6667 26.6667C18.6667 28.1394 19.8607 29.3333 21.3334 29.3333Z" stroke="#242425" stroke-width="1.5" stroke-linecap="round" stroke-linejoin="round"/>
<path d="M29.3333 16V18.6667H25.3333C24.6 18.6667 24 18.0667 24 17.3333V13.3333C24 12.6 24.6 12 25.3333 12H27.0533L29.3333 16Z" stroke="#242425" stroke-width="1.5" stroke-linecap="round" stroke-linejoin="round"/>
<path d="M2.66675 10.6667H10.6667" stroke="#242425" stroke-width="1.5" stroke-linecap="round" stroke-linejoin="round"/>
<path d="M2.66675 14.6667H8.00008" stroke="#242425" stroke-width="1.5" stroke-linecap="round" stroke-linejoin="round"/>
<path d="M2.66675 18.6667H5.33341" stroke="#242425" stroke-width="1.5" stroke-linecap="round" stroke-linejoin="round"/>
</svg>
