<svg width="34" height="34" viewBox="0 0 34 34" fill="none" xmlns="http://www.w3.org/2000/svg">
<path d="M26.312 11.87C24.9973 11.7793 24.0113 12.108 23.354 12.856C22.6967 13.5813 22.368 14.6013 22.368 15.916C22.368 16.1427 22.3907 16.5053 22.436 17.004H26.788V25.742H18.39V16.664C18.39 13.9667 18.9453 11.8813 20.056 10.408C21.1893 8.93466 22.844 8.198 25.02 8.198C25.6547 8.198 26.244 8.24333 26.788 8.334L26.312 11.87ZM7 16.664C7 13.9667 7.55533 11.8813 8.666 10.408C9.79933 8.93466 11.454 8.198 13.63 8.198C14.2647 8.198 14.854 8.24333 15.398 8.334L14.922 11.87C13.6073 11.7793 12.6213 12.108 11.964 12.856C11.3067 13.5813 10.978 14.6013 10.978 15.916C10.978 16.1427 11.0007 16.5053 11.046 17.004H15.398V25.742H7V16.664Z" fill="#1C4081"/>
</svg>
