<svg width="40" height="40" viewBox="0 0 40 40" fill="none" xmlns="http://www.w3.org/2000/svg">
<path d="M13.3502 36.25C13.9668 36.8167 14.9668 36.8167 15.5835 36.25L18.9168 33.2C19.5335 32.6334 20.5335 32.6334 21.1502 33.2L24.4835 36.25C25.1002 36.8167 26.1002 36.8167 26.7169 36.25L30.0502 33.2C30.6669 32.6334 31.6668 32.6334 32.2835 33.2L33.9502 34.7167C35.4168 36.1166 36.6668 35.55 36.6668 33.45V9M3.33351 9L3.33351 5.00001C3.33351 3.45565 4 3.45566 4.99992 3.45566C5.67639 3.45566 34 3.45566 35 3.45567C36 3.45567 36.6668 4 36.6668 5V9M3.33351 9C3.3335 10.6 4.44445 11 4.99992 11C14.4443 11 33.6665 11 35 11C36.6668 11 36.6668 10 36.6668 9M3.33351 9L3.33351 25.5" stroke="url(#paint0_linear_314_1272)" stroke-width="1.5" stroke-linecap="round" stroke-linejoin="round"/>
<defs>
<linearGradient id="paint0_linear_314_1272" x1="9.48841" y1="4.42801" x2="26.206" y2="21.5282" gradientUnits="userSpaceOnUse">
<stop stop-color="#49B0EA"/>
<stop offset="1" stop-color="#FFC226"/>
</linearGradient>
</defs>
</svg>
