<svg width="40" height="40" viewBox="0 0 40 40" fill="none" xmlns="http://www.w3.org/2000/svg">
<rect x="8" y="20" width="24" height="9.33333" fill="url(#paint0_linear_313_11814)" fill-opacity="0.2"/>
<path d="M3.3335 15V10.8333C3.3335 6.68334 6.6835 3.33334 10.8335 3.33334H15.0002M25.0002 3.33334H29.1668C33.3168 3.33334 36.6668 6.68334 36.6668 10.8333V15M36.6668 26.6667V29.1667C36.6668 33.3167 33.3168 36.6667 29.1668 36.6667H26.6668M31.6668 20H8.3335M28.3335 15.8333V24.1667C28.3335 27.5 26.6668 29.1667 23.3335 29.1667H16.6668C13.3335 29.1667 11.6668 27.5 11.6668 24.1667V15.8333C11.6668 12.5 13.3335 10.8333 16.6668 10.8333H23.3335C26.6668 10.8333 28.3335 12.5 28.3335 15.8333Z" stroke="url(#paint1_linear_313_11814)" stroke-width="1.5" stroke-linecap="round" stroke-linejoin="round"/>
<defs>
<linearGradient id="paint0_linear_313_11814" x1="20" y1="20" x2="20" y2="29.3333" gradientUnits="userSpaceOnUse">
<stop stop-color="white"/>
<stop offset="1" stop-color="white" stop-opacity="0"/>
</linearGradient>
<linearGradient id="paint1_linear_313_11814" x1="9.48841" y1="4.30904" x2="26.2646" y2="21.4104" gradientUnits="userSpaceOnUse">
<stop stop-color="#49B0EA"/>
<stop offset="1" stop-color="#FFC226"/>
</linearGradient>
</defs>
</svg>
