<svg width="40" height="40" viewBox="0 0 40 40" fill="none" xmlns="http://www.w3.org/2000/svg">
<path d="M11.1668 15.4333L20.0002 20.55L28.7668 15.4667M20.0002 29.6167V20.5333M10.4001 20.0083V17.1833C10.4001 15.8 11.4002 14.1167 12.6002 13.45L17.9335 10.4833C19.0668 9.83335 20.9335 9.83334 22.0835 10.4667L27.4168 13.4333C28.6335 14.1 29.6168 15.7833 29.6168 17.1667V22.8333C29.6168 24.2167 28.6168 25.9 27.4168 26.5667L22.0835 29.5333C20.9335 30.1667 19.0668 30.1667 17.9335 29.5333L15.2668 28.05M36.6668 25C36.6668 31.45 31.4502 36.6667 25.0002 36.6667L26.7501 33.75M3.3335 15C3.3335 8.55001 8.55016 3.33334 15.0002 3.33334L13.2502 6.25001" stroke="url(#paint0_linear_313_11781)" stroke-width="1.5" stroke-linecap="round" stroke-linejoin="round"/>
<defs>
<linearGradient id="paint0_linear_313_11781" x1="9.48841" y1="4.30904" x2="26.2646" y2="21.4104" gradientUnits="userSpaceOnUse">
<stop stop-color="#49B0EA"/>
<stop offset="1" stop-color="#FFC226"/>
</linearGradient>
</defs>
</svg>
