<svg width="40" height="40" viewBox="0 0 40 40" fill="none" xmlns="http://www.w3.org/2000/svg">
<path d="M17.6335 34.5833L18.1638 34.053L18.1302 34.0194L18.0926 33.9903L17.6335 34.5833ZM31.8001 32.0833L31.0876 31.8491L31.0791 31.875L31.0725 31.9014L31.8001 32.0833ZM35.8001 19.9167L35.0938 19.6644L35.0906 19.6734L35.0876 19.6824L35.8001 19.9167ZM24.3001 13.5833L23.5591 13.4675L23.5577 13.4773L24.3001 13.5833ZM25.1335 8.25L24.4013 8.0873L24.3961 8.11062L24.3925 8.13421L25.1335 8.25ZM22.9668 4.58333L22.7035 5.28558L22.7165 5.29045L22.7296 5.29484L22.9668 4.58333ZM19.3001 5.75L19.9226 6.16838L19.9242 6.16602L19.3001 5.75ZM11.5501 30.5833C11.5501 30.9975 11.8859 31.3333 12.3001 31.3333C12.7143 31.3333 13.0501 30.9975 13.0501 30.5833H11.5501ZM3.2168 26.2295C3.2168 26.6437 3.55258 26.9795 3.9668 26.9795C4.38101 26.9795 4.7168 26.6437 4.7168 26.2295H3.2168ZM12.0077 31.1764L17.1743 35.1764L18.0926 33.9903L12.9259 29.9903L12.0077 31.1764ZM17.1031 35.1137C17.5698 35.5803 18.2565 35.8747 18.8858 36.0545C19.5334 36.2395 20.2277 36.3333 20.8001 36.3333V34.8333C20.3726 34.8333 19.8169 34.7605 19.2978 34.6122C18.7605 34.4586 18.3638 34.253 18.1638 34.053L17.1031 35.1137ZM20.8001 36.3333H27.1335V34.8333H20.8001V36.3333ZM27.1335 36.3333C28.3132 36.3333 29.5071 35.8948 30.4722 35.1886C31.4378 34.4821 32.227 33.4682 32.5277 32.2652L31.0725 31.9014C30.8733 32.6985 30.3291 33.4346 29.5864 33.9781C28.8432 34.5219 27.9537 34.8333 27.1335 34.8333V36.3333ZM32.5126 32.3176L36.5126 20.1509L35.0876 19.6824L31.0876 31.8491L32.5126 32.3176ZM36.5064 20.1689C36.9971 18.795 36.8186 17.4452 36.0706 16.4301C35.3261 15.4198 34.0864 14.8333 32.6335 14.8333V16.3333C33.6805 16.3333 34.4408 16.7469 34.863 17.3199C35.2817 17.8881 35.4365 18.705 35.0938 19.6644L36.5064 20.1689ZM32.6335 14.8333H25.9668V16.3333H32.6335V14.8333ZM25.9668 14.8333C25.4101 14.8333 24.9423 14.3914 25.0426 13.6894L23.5577 13.4773C23.3246 15.1086 24.5234 16.3333 25.9668 16.3333V14.8333ZM25.0411 13.6991L25.8745 8.36578L24.3925 8.13421L23.5591 13.4675L25.0411 13.6991ZM25.8656 8.4127C26.2883 6.51072 25.0419 4.48447 23.204 3.87182L22.7296 5.29484C23.8917 5.68219 24.6453 6.98928 24.4013 8.0873L25.8656 8.4127ZM23.2301 3.88108C22.3664 3.5572 21.4332 3.62212 20.6397 3.8949C19.8512 4.16594 19.1185 4.6703 18.6761 5.33397L19.9242 6.16602C20.1484 5.82969 20.5824 5.50072 21.1273 5.31343C21.6671 5.12788 22.2338 5.10946 22.7035 5.28558L23.2301 3.88108ZM18.6777 5.33162L11.8443 15.4983L13.0893 16.335L19.9226 6.16837L18.6777 5.33162ZM4.7168 14.25C4.7168 13.1678 4.95179 12.6339 5.26717 12.3428C5.59729 12.038 6.19095 11.8333 7.30013 11.8333V10.3333C6.07598 10.3333 5.00297 10.5453 4.24975 11.2406C3.4818 11.9494 3.2168 12.9988 3.2168 14.25H4.7168ZM7.30013 11.8333H8.9668V10.3333H7.30013V11.8333ZM8.9668 11.8333C10.076 11.8333 10.6696 12.038 10.9998 12.3428C11.3151 12.6339 11.5501 13.1678 11.5501 14.25H13.0501C13.0501 12.9988 12.7851 11.9494 12.0172 11.2406C11.264 10.5453 10.1909 10.3333 8.9668 10.3333V11.8333ZM11.5501 14.25V30.5833H13.0501V14.25H11.5501ZM4.7168 26.2295V14.25H3.2168V26.2295H4.7168Z" fill="url(#paint0_linear_313_11663)"/>
<defs>
<linearGradient id="paint0_linear_313_11663" x1="9.88747" y1="5.32567" x2="25.5601" y2="21.7607" gradientUnits="userSpaceOnUse">
<stop stop-color="#49B0EA"/>
<stop offset="1" stop-color="#FFC226"/>
</linearGradient>
</defs>
</svg>
