<svg width="40" height="40" viewBox="0 0 40 40" fill="none" xmlns="http://www.w3.org/2000/svg">
<path d="M22.9309 13.2229L26.6781 9.48624C26.2348 9.04452 25.9076 8.50065 25.7256 7.90281C25.5435 7.30496 25.5122 6.67159 25.6343 6.05879C25.7565 5.446 26.0284 4.87269 26.426 4.38965C26.8236 3.90661 27.3346 3.52874 27.9137 3.28952C28.4928 3.05031 29.1221 2.95712 29.746 3.01821C30.3699 3.0793 30.969 3.29279 31.4903 3.63977C32.0116 3.98675 32.439 4.4565 32.7347 5.00743C33.0303 5.55835 33.1851 6.17345 33.1853 6.79823C33.8123 6.79778 34.4297 6.9515 34.9829 7.24576C35.5361 7.54002 36.0079 7.96574 36.3565 8.48518C36.7051 9.00463 36.9198 9.60176 36.9815 10.2237C37.0432 10.8456 36.95 11.4731 36.7102 12.0505C36.4704 12.6279 36.0914 13.1375 35.6068 13.534C35.1222 13.9306 34.5469 14.2018 33.9319 14.3238C33.3169 14.4458 32.6813 14.4146 32.0813 14.2332C31.4812 14.0518 30.9354 13.7256 30.4921 13.2837L27.0231 16.7429M8.22355 32.627C3.01315 27.4339 0.599513 21.4199 2.83254 19.1944M2.83254 19.1944C5.06557 16.9688 11.0997 19.3744 16.3101 24.5674C21.5205 29.7604 23.9341 35.7744 21.7011 38C29.144 30.5799 30.9552 20.3562 25.7442 15.1644C20.5351 9.97075 10.2755 11.7762 2.83254 19.1944ZM11.2662 27.6946L13.1722 29.5943" stroke="url(#paint0_linear_314_1296)" stroke-width="1.5" stroke-linecap="round" stroke-linejoin="round"/>
<defs>
<linearGradient id="paint0_linear_314_1296" x1="8.46265" y1="4.02448" x2="26.0777" y2="21.9809" gradientUnits="userSpaceOnUse">
<stop stop-color="#49B0EA"/>
<stop offset="1" stop-color="#FFC226"/>
</linearGradient>
</defs>
</svg>
