<svg width="24" height="24" viewBox="0 0 24 24" fill="none" xmlns="http://www.w3.org/2000/svg">
<path d="M12.92 2.26L19.43 5.77C20.19 6.18 20.19 7.35 19.43 7.76L12.92 11.27C12.34 11.58 11.66 11.58 11.08 11.27L4.57 7.76C3.81 7.35 3.81 6.18 4.57 5.77L11.08 2.26C11.66 1.95 12.34 1.95 12.92 2.26Z" stroke="#292D32" stroke-width="1.5" stroke-linecap="round" stroke-linejoin="round"/>
<path d="M9.28 21.86C10.02 22.23 10.89 21.7 10.89 20.87V15.15C10.89 14.31 10.41 13.54 9.66 13.16L3.61 10.13C2.87 9.75999 2 10.29 2 11.12" stroke="#292D32" stroke-width="1.5" stroke-linecap="round" stroke-linejoin="round"/>
<path d="M20.3901 10.13L14.3401 13.16C13.5901 13.54 13.1101 14.31 13.1101 15.15V20.87C13.1101 21.7 13.9801 22.23 14.7201 21.86L20.7701 18.83C21.5201 18.45 22.0001 17.68 22.0001 16.84V11.12C22.0001 10.29 21.1301 9.75999 20.3901 10.13Z" stroke="#292D32" stroke-width="1.5" stroke-linecap="round" stroke-linejoin="round"/>
</svg>
