<svg width="24" height="24" viewBox="0 0 24 24" fill="none" xmlns="http://www.w3.org/2000/svg">
<path d="M12 15C13.6569 15 15 13.6569 15 12C15 10.3431 13.6569 9 12 9C10.3431 9 9 10.3431 9 12C9 13.6569 10.3431 15 12 15Z" stroke="#292D32" stroke-width="1.5" stroke-miterlimit="10" stroke-linecap="round" stroke-linejoin="round"/>
<path d="M10.25 20.61L10.36 20.42C11.27 18.85 12.75 18.85 13.65 20.42L13.76 20.61C14.23 21.4 15.25 21.68 16.04 21.21L17.77 20.22C18.68 19.7 18.99 18.54 18.47 17.63C17.56 16.06 18.3 14.78 20.11 14.78C21.16 14.78 22.01 13.92 22.01 12.88V11.12C22.01 10.07 21.15 9.22 20.11 9.22C18.3 9.22 17.56 7.94 18.47 6.37C18.99 5.47 18.68 4.3 17.77 3.78L16.04 2.79C15.25 2.32 14.23 2.6 13.76 3.39L13.65 3.58C12.74 5.15 11.26 5.15 10.36 3.58L10.25 3.39C9.78 2.6 8.76 2.32 7.97 2.79L6.24 3.78C5.33 4.3 5.02 5.47 5.54 6.37C6.45 7.94 5.71 9.22 3.9 9.22C2.85 9.22 2 10.08 2 11.12V12.88C2 13.92 2.85 14.78 3.9 14.78" stroke="#292D32" stroke-width="1.5" stroke-miterlimit="10" stroke-linecap="round" stroke-linejoin="round"/>
</svg>
