<svg width="78" height="26" viewBox="0 0 78 26" fill="none" xmlns="http://www.w3.org/2000/svg">
<path d="M42.9589 13H45.8676L41.8412 17.8869L46.6297 23.4007H43.3781L39.0596 18.3603V23.4007H36.4557V13H39.0596V17.7974L42.9589 13Z" fill="#D5DDE1"/>
<path d="M53.5639 23.4007H50.8691L55.4117 13H58.1577L62.7387 23.4007H60.0568L56.7975 15.5555L55.771 18.047L53.5639 23.4007Z" fill="#D5DDE1"/>
<path d="M75.5464 13H77.9988V23.4007H75.7892L70.2652 16.9402V23.4007H67.8249V13H69.9981L75.5464 19.486V13Z" fill="#D5DDE1"/>
<path d="M20.5059 26H19.4811H8.02225H7.34941H0L13.819 0L27.7104 26H20.5059ZM10.8481 19.9259H16.6552L13.7569 13.672L10.8481 19.9259Z" fill="#D5DDE1"/>
<path d="M41.76 7.9999L41.752 4.6399L40.104 7.4079H39.52L37.88 4.7119V7.9999H36.664V2.3999H37.736L39.832 5.8799L41.896 2.3999H42.96L42.976 7.9999H41.76Z" fill="#D5DDE1"/>
<path d="M48.3926 6.7999H45.7926L45.2966 7.9999H43.9686L46.4646 2.3999H47.7446L50.2486 7.9999H48.8886L48.3926 6.7999ZM47.9846 5.8159L47.0966 3.6719L46.2086 5.8159H47.9846Z" fill="#D5DDE1"/>
<path d="M51.2296 2.3999H53.7736C54.3816 2.3999 54.9176 2.51724 55.3816 2.7519C55.851 2.98124 56.2136 3.30657 56.4696 3.7279C56.731 4.14924 56.8616 4.6399 56.8616 5.1999C56.8616 5.7599 56.731 6.25057 56.4696 6.6719C56.2136 7.09324 55.851 7.42124 55.3816 7.6559C54.9176 7.88524 54.3816 7.9999 53.7736 7.9999H51.2296V2.3999ZM53.7096 6.9359C54.2696 6.9359 54.715 6.78124 55.0456 6.4719C55.3816 6.15724 55.5496 5.73324 55.5496 5.1999C55.5496 4.66657 55.3816 4.24524 55.0456 3.9359C54.715 3.62124 54.2696 3.4639 53.7096 3.4639H52.5256V6.9359H53.7096Z" fill="#D5DDE1"/>
<path d="M62.575 6.9599V7.9999H58.239V2.3999H62.471V3.4399H59.527V4.6559H62.127V5.6639H59.527V6.9599H62.575Z" fill="#D5DDE1"/>
<path d="M70.7838 5.0879C71.1038 5.18924 71.3545 5.3599 71.5358 5.5999C71.7171 5.83457 71.8078 6.12524 71.8078 6.4719C71.8078 6.96257 71.6158 7.34124 71.2318 7.6079C70.8531 7.86924 70.2985 7.9999 69.5678 7.9999H66.6718V2.3999H69.4078C70.0905 2.3999 70.6131 2.53057 70.9758 2.7919C71.3438 3.05324 71.5278 3.4079 71.5278 3.8559C71.5278 4.1279 71.4611 4.37057 71.3278 4.5839C71.1998 4.79724 71.0185 4.96524 70.7838 5.0879ZM67.9598 3.3759V4.6959H69.2478C69.5678 4.6959 69.8105 4.6399 69.9758 4.5279C70.1411 4.4159 70.2238 4.25057 70.2238 4.0319C70.2238 3.81324 70.1411 3.65057 69.9758 3.5439C69.8105 3.4319 69.5678 3.3759 69.2478 3.3759H67.9598ZM69.4718 7.0239C69.8131 7.0239 70.0691 6.9679 70.2398 6.8559C70.4158 6.7439 70.5038 6.57057 70.5038 6.3359C70.5038 5.8719 70.1598 5.6399 69.4718 5.6399H67.9598V7.0239H69.4718Z" fill="#D5DDE1"/>
<path d="M75.7598 6.0159V7.9999H74.4638V5.9999L72.2958 2.3999H73.6718L75.1678 4.8879L76.6638 2.3999H77.9358L75.7598 6.0159Z" fill="#D5DDE1"/>
</svg>
