<svg width="60" height="60" viewBox="0 0 60 60" fill="none" xmlns="http://www.w3.org/2000/svg">
<path d="M24.37 27.5099C22.3454 27.6538 21.3279 29.1817 21.3139 30.7199M24.41 27.5099C21.62 19.7499 33.41 16.6599 34.76 24.7999C38.53 25.2799 40.06 30.2799 37.2 32.7799C36.33 33.5699 35.2 34.0099 34.03 33.9999H30" stroke="#242425" stroke-width="2" stroke-miterlimit="10" stroke-linecap="round" stroke-linejoin="round"/>
<path d="M30 34V37" stroke="#242425" stroke-width="2" stroke-miterlimit="10" stroke-linecap="round" stroke-linejoin="round"/>
<path d="M30 41C31.1046 41 32 40.1046 32 39C32 37.8954 31.1046 37 30 37C28.8954 37 28 37.8954 28 39C28 40.1046 28.8954 41 30 41Z" stroke="#242425" stroke-width="2" stroke-miterlimit="10" stroke-linecap="round" stroke-linejoin="round"/>
<path d="M36 39H32" stroke="#242425" stroke-width="2" stroke-miterlimit="10" stroke-linecap="round" stroke-linejoin="round"/>
<path d="M28 39H24" stroke="#242425" stroke-width="2" stroke-miterlimit="10" stroke-linecap="round" stroke-linejoin="round"/>
<path d="M23.0667 56H46C51.5228 56 56 51.5228 56 46V14C56 8.47715 51.5228 4 46 4H14C8.47715 4 4 8.47715 4 14V36.9333" stroke="url(#paint0_linear_261_33681)" stroke-width="8" stroke-linecap="round"/>
<defs>
<linearGradient id="paint0_linear_261_33681" x1="-14.5" y1="-10.5" x2="65.5" y2="67" gradientUnits="userSpaceOnUse">
<stop stop-color="#FF5B5B"/>
<stop offset="1" stop-color="#469AFF"/>
</linearGradient>
</defs>
</svg>
