<svg width="184" height="83" viewBox="0 0 184 83" fill="none" xmlns="http://www.w3.org/2000/svg">
<g clip-path="url(#clip0_621_1490)">
<path d="M92 72.498C92.5482 72.2207 106.802 65.9794 111.325 62.2347C115.985 58.3513 118.452 52.8036 118.452 46.1463V14.9403L118.041 14.8016C106.665 8.56038 92.5482 8.97646 91.8629 8.97646C91.3147 8.97646 77.198 8.56038 65.8223 14.8016L65.5482 14.9403V46.285C65.5482 52.9423 68.0152 58.49 72.6751 62.3734C77.198 66.1181 91.4518 72.3593 92 72.498Z" fill="#76838B"/>
<path d="M92 73.1915C92 73.1915 76.9239 66.5342 72.264 62.7895C67.3299 58.6287 65 52.9423 65 46.4237V13.9695C76.9239 7.45086 92 8.00563 92 8.00563C92 8.00563 107.076 7.45086 119 13.9695V46.285C119 52.8036 116.67 58.49 111.736 62.6508C107.076 66.5342 92 73.1915 92 73.1915M67.1929 46.4237C67.1929 52.5262 69.3858 57.5192 73.6345 60.9865C77.4721 64.1765 88.8477 69.3081 92 70.695C95.1523 69.3081 106.665 64.0378 110.365 60.9865C114.614 57.5192 116.807 52.3875 116.807 46.4237V14.5242C100.909 12.9986 81.9949 13.8308 67.1929 27.7001V46.4237V46.4237Z" fill="#D5DDE1"/>
<path d="M107.213 41.8467C109.269 43.0949 110.091 43.9271 110.228 45.4527C110.228 47.117 109.132 48.0879 107.35 48.0879C105.843 48.0879 104.061 47.2557 102.827 46.1462V50.5844C104.335 51.4165 106.117 52.11 108.036 52.11C112.695 52.11 114.888 48.7814 114.888 45.7301C115.025 42.9562 114.203 40.7371 110.228 38.3793C108.447 37.2698 107.076 36.5763 107.076 34.912C107.076 33.2477 108.584 32.5542 109.817 32.5542C111.462 32.5542 113.107 33.5251 114.066 34.4959V30.3351C113.244 29.6417 111.462 28.6708 108.858 28.8095C105.706 28.9482 102.416 31.1673 102.416 35.0507C102.553 37.6859 103.376 39.6276 107.213 41.8467M91.0406 51.8326C91.4518 51.9713 92.137 52.11 93.2335 52.11C98.5787 52.11 101.594 47.2557 101.594 40.3211C101.594 33.2477 98.4416 28.9482 92.8223 28.9482C90.2183 28.9482 88.1624 29.503 86.3807 30.6125V61.9572H91.0406V51.8326V51.8326ZM91.0406 32.9703C91.4518 32.8316 92.137 32.5542 92.6853 32.5542C95.4264 32.5542 96.5228 34.7733 96.5228 40.1824C96.5228 45.4527 95.1523 47.9492 92.4112 47.9492C91.7259 47.9492 91.1777 47.8105 90.9035 47.6718V32.9703H91.0406ZM76.6497 52.11C79.5279 52.11 81.9949 51.4165 83.7766 50.1683V29.2256H78.9797V47.3944C78.4315 47.8105 77.7462 47.9492 76.7868 47.9492C74.5939 47.9492 74.3198 45.8688 74.3198 44.6206V29.2256H69.5228V44.3432C69.5228 49.4748 71.9898 52.11 76.6497 52.11M108.584 70.8336V74.0236H109.132V72.7753H109.269L110.091 74.0236H110.777C110.777 74.0236 109.954 72.7753 109.817 72.6366C110.228 72.4979 110.503 72.2205 110.503 71.8045C110.503 71.3884 110.228 70.8336 109.406 70.8336H108.584V70.8336ZM109.406 71.2497C109.817 71.2497 109.954 71.5271 109.954 71.6658C109.954 71.9432 109.817 72.2205 109.269 72.2205H109.132V71.2497H109.406V71.2497Z" fill="#D5DDE1"/>
<path d="M111.599 72.3593C111.599 73.4688 110.64 74.4397 109.543 74.4397C108.447 74.4397 107.487 73.4688 107.487 72.3593C107.487 71.2498 108.447 70.2789 109.543 70.2789C110.777 70.2789 111.599 71.2498 111.599 72.3593ZM109.543 69.7241C108.173 69.7241 106.939 70.8337 106.939 72.3593C106.939 73.7462 108.036 74.9945 109.543 74.9945C110.914 74.9945 112.147 73.8849 112.147 72.3593C112.147 70.9724 110.914 69.7241 109.543 69.7241Z" fill="#D5DDE1"/>
</g>
<defs>
<clipPath id="clip0_621_1490">
<rect width="54" height="67" fill="white" transform="translate(65 8)"/>
</clipPath>
</defs>
</svg>
