<svg width="184" height="83" viewBox="0 0 184 83" fill="none" xmlns="http://www.w3.org/2000/svg">
<g clip-path="url(#clip0_621_1475)">
<path d="M49.6854 32.3005L45.5641 37.9479H68.0257C69.1615 37.9479 69.1474 38.3792 68.5922 39.1419C68.0285 39.9131 67.0853 41.2471 66.5103 42.0327C66.2186 42.4297 65.6917 43.1524 67.4366 43.1524H76.6223L79.3443 39.4218C81.0325 37.1109 79.4916 32.3034 73.4556 32.3034L49.6854 32.3005Z" fill="#76838B"/>
<path d="M43.8958 50.6993L52.1752 39.3533H62.4486C63.5844 39.3533 63.5703 39.7874 63.0151 40.5473L60.919 43.4266C60.6273 43.8237 60.1005 44.5464 61.8453 44.5464H75.6055C74.464 46.1289 70.7478 50.6993 64.0858 50.6993H43.8958ZM91.306 44.5435L86.8165 50.6993H74.9739L79.4633 44.5435H91.306ZM109.445 43.1496H80.483L88.4027 32.3005H100.24L95.702 38.522H100.985L105.528 32.3005H117.365L109.445 43.1496ZM108.428 44.5435L103.939 50.6993H92.1019L96.5914 44.5435H108.428ZM27 46.9716H44.4425L43.4907 48.277H27V46.9716ZM27 44.5435H46.2156L45.2611 45.849H27V44.5435ZM27 49.3996H42.6722L41.7233 50.6993H27V49.3996ZM156 48.277H138.62L139.574 46.9716H156V48.277ZM156 50.6993H136.855L137.801 49.3996H156V50.6993ZM141.345 44.5435H156V45.8518H140.393L141.345 44.5435ZM133.759 32.3005L125.84 43.1496H113.295L121.22 32.3005H133.759ZM112.281 44.5435C112.281 44.5435 111.417 45.7376 110.995 46.3089C109.51 48.337 110.822 50.6965 115.674 50.6965H134.686L139.175 44.5435H112.281Z" fill="#76838B"/>
</g>
<defs>
<clipPath id="clip0_621_1475">
<rect width="129" height="83" fill="white" transform="translate(27)"/>
</clipPath>
</defs>
</svg>
